<svg width="161px" height="72px" viewBox="0 0 161 72" version="1.1" xmlns="http://www.w3.org/2000/svg" xmlns:xlink="http://www.w3.org/1999/xlink">
    <!-- Generator: Sketch 63.1 (92452) - https://sketch.com -->
    <title>Logo Mains Rouges - Importation de vin</title>
        <g id="logo-mains-rouges" fill="#FFFFFF">
                <path d="M94.5848022,50.2924358 C99.2205446,50.2924358 101.642933,52.3923105 102.726119,53.6977349 L102.811027,53.8017821 L99.6920919,57.023477 C99.2592707,56.4481743 97.5279861,54.8399419 94.8156401,54.8399419 C91.2087971,54.8399419 89.1312555,57.3425085 89.1312555,60.5903535 C89.1312555,64.3298208 91.6127635,66.6310315 94.8156401,66.6310315 C97.2532889,66.6310315 98.6804215,65.7851232 99.0738298,65.4375055 L99.1176201,65.3967458 L99.1176201,63.6133075 L95.6235729,63.6133075 L95.6235729,59.4972785 L103.705524,59.4972785 L103.705524,68.0143729 C101.570273,69.6566005 99.1176201,71.1785375 94.4693832,71.1785375 C88.7561438,71.1785375 84.0239658,67.1540339 84.0239658,60.6766489 C84.0239658,54.9262373 88.2944679,50.2924358 94.5848022,50.2924358 Z M48.6105383,50.2919128 C54.9900599,50.2919128 59.2028525,54.865569 59.2028525,60.7075061 C59.2028525,66.6305085 54.9900599,71.1780145 48.6105383,71.1780145 C42.2336398,71.1780145 38.018224,66.6305085 38.018224,60.7075061 C38.018224,54.865569 42.2336398,50.2919128 48.6105383,50.2919128 Z M132.445374,50.2929588 C136.673094,50.2929588 138.368584,53.2808311 138.930087,54.8389057 L138.96917,54.9502954 L134.869173,56.8226441 C134.465206,55.9309249 133.859257,54.8378499 132.329955,54.8378499 C131.377749,54.8378499 130.742944,55.4131525 130.742944,56.1898111 C130.742944,58.9251138 139.171153,58.6348475 139.171153,64.793201 C139.171153,68.5039031 136.516516,71.1764455 132.099117,71.1764455 C127.671882,71.1764455 125.835104,68.0470797 125.26913,66.481886 L125.231688,66.3752833 L129.357917,64.3303438 C129.906157,65.5097143 131.002637,66.5766392 132.387665,66.5766392 C133.573332,66.5766392 134.179282,66.0562518 134.179282,65.1671477 C134.179282,62.4893753 125.808783,62.7194964 125.808783,56.2761065 C125.808783,52.6516998 128.434565,50.2929588 132.445374,50.2929588 Z M68.1076889,50.6671671 L68.1076889,63.0675545 C68.1076889,65.2537046 69.4350071,66.6030508 71.6279677,66.6030508 C73.7757225,66.6030508 75.00673,65.3421617 75.0864108,63.2550156 L75.090537,63.0361743 L75.090537,50.6671671 L80.0246982,50.6671671 L80.0246982,63.0361743 C80.0246982,67.7562712 76.9372406,71.1505569 71.5991129,71.1505569 C66.2748783,71.1505569 63.285503,67.9916599 63.1766113,63.3328514 L63.1735276,63.0675545 L63.1735276,50.6671671 L68.1076889,50.6671671 Z M120.401142,50.6648136 L120.401142,55.0684939 L114.572483,55.0684939 L114.572483,58.4340145 L119.535499,58.4340145 L119.535499,62.8063148 L114.572483,62.8063148 L114.572483,66.4019564 L120.63198,66.4019564 L120.63198,70.8056368 L109.638322,70.8056368 L109.638322,50.6648136 L120.401142,50.6648136 Z M26.6943108,50.6669056 C31.4553436,50.6669056 33.7637231,52.8530557 33.7637231,56.8514092 C33.7637231,58.9836498 32.8833546,61.0046751 31.1739212,62.0520078 L30.9653074,62.1738668 C30.9752912,62.1922976 31.1825823,62.5764046 35.4234863,70.4577028 L35.6104267,70.8051138 L30.1568801,70.8051138 L26.5500371,63.3523293 L25.0495904,63.3523293 L25.0495904,70.8051138 L20.1154291,70.8051138 L20.1154291,50.6669056 L26.6943108,50.6669056 Z M48.6105383,54.8943341 C45.3788069,54.8943341 43.1569916,57.3969007 43.1569916,60.7075061 C43.1569916,64.1017918 45.4076617,66.5755932 48.6105383,66.5755932 C51.8134149,66.5755932 54.0667081,64.1017918 54.0667081,60.7075061 C54.0667081,57.3969007 51.8422696,54.8943341 48.6105383,54.8943341 Z M26.2903444,54.8953801 L25.0495904,54.8953801 L25.0495904,59.2389153 L26.5211823,59.2389153 C27.8773553,59.2389153 28.7141429,58.4047264 28.7141429,57.024 C28.7141429,55.7008039 28.0793385,54.8953801 26.2903444,54.8953801 Z M140.982968,12.9976562 C144.180599,16.3893269 147.123783,19.5561065 149.280019,22.7699564 C152.808167,21.0597385 156.02416,20.081724 157.855124,20.3484552 C160.772077,20.7694722 160.806178,24.7992058 158.681419,24.7992058 C156.089739,24.7992058 153.537405,25.280368 151.163447,26.0570266 C152.621923,29.1192058 153.246235,32.2990605 152.572083,35.8214818 C151.173939,43.0990605 140.429482,47.2804649 134.776575,42.8270993 C129.076452,38.3345085 136.140618,30.7562034 144.149121,25.6438547 C142.714253,23.2223535 140.670813,20.7747022 138.640488,18.2329104 C137.593848,20.8165424 130.70281,40.5180436 126.033588,42.7564939 C122.028025,44.6785278 118.069678,43.2559613 116.527261,39.098092 C115.38881,36.0332978 116.123295,31.0543148 116.671535,27.9267603 C117.062386,25.701385 117.998853,21.1198838 117.89655,18.9938789 C117.673581,14.4489879 114.677934,11.3057433 110.709096,16.0023051 C106.74288,20.6962518 105.247679,37.147293 105.008972,41.2842421 C104.770265,45.4211913 97.944806,44.1293753 98.3618882,40.387293 C98.4222208,39.8560097 98.6415551,36.2722491 98.7174466,35.4405614 L98.7255576,35.3489296 L98.6647706,35.5485202 C97.6311864,38.7833653 94.4072961,43.3764355 90.1511805,43.3794771 L89.8838397,43.3736368 C85.4769333,43.1775109 84.4434088,37.4375593 84.0840361,36.6504407 C83.2577412,39.6681646 79.8240266,43.3840969 76.4480215,43.3344116 C72.9251196,43.2794964 71.7551909,39.1190121 71.0941549,35.4370751 C68.5077206,41.5091332 63.2823887,44.2941211 59.5338951,42.8532494 C55.2529004,41.2084068 53.9806685,35.9600775 53.6842515,35.41877 C51.6827816,40.5180436 46.793214,44.0038547 43.0473436,43.3213366 C35.3326342,41.9170751 39.5873974,29.7703438 40.1172755,27.1134915 C40.6497767,24.4514092 41.9980802,19.3469056 42.1528465,17.0823051 C42.4518866,12.7936852 37.1294979,12.312523 34.4381372,16.9306344 C32.6937367,19.9222082 30.2227214,35.416155 29.7085823,42.0739758 C29.5170917,44.5634673 23.0851069,43.9489395 23.4785807,41.7104891 C24.178964,37.7095206 26.7050657,24.189908 26.0728845,17.2548959 C25.5220212,11.2194479 19.7195945,14.048891 18.1352067,18.6643874 C17.114798,21.6350412 15.3572818,36.0149927 13.6469824,42.1942663 C12.8810201,44.9583341 6.26803738,43.7763487 6.67462696,42.4923777 C7.65044195,39.4171235 10.7274069,21.3970751 11.8002788,16.854799 C13.3977824,10.0819177 9.89586567,9.85441162 5.72766672,17.5451622 C4.4501885,19.8986731 -1.64865516,17.8798838 0.426263266,15.3119419 C13.2456392,-0.542876513 17.5082718,11.7529104 16.4983558,15.6597385 C19.4520323,11.6927651 23.9586187,5.64424213 28.8167084,7.57412107 C31.3270711,8.57044068 32.2661619,11.6849201 32.7435767,14.0724262 C34.1994297,12.2419177 38.438454,8.69596126 41.1009599,7.78593705 C44.2487502,6.71378208 46.213496,7.14525908 48.2202123,9.90148184 C50.2810968,12.73354 49.0347227,16.7125816 47.9850795,20.8319281 L47.8214922,21.4833705 C46.5335213,26.6872446 45.1143925,30.2122809 45.4186789,34.6159613 C45.7465737,39.3648232 51.6250721,34.4695206 52.516946,31.9329588 C52.8500871,23.1308281 54.932875,15.7408039 58.3560969,12.0693269 C62.823336,7.27339467 69.3733629,7.86700242 72.8647869,13.6670993 C74.0425851,10.6702954 79.118397,11.1488426 79.118397,13.2042421 C79.118397,16.4703923 75.9837225,26.0334915 76.3745731,31.4517966 C76.505731,33.2352349 76.4532679,38.0547022 80.3093109,35.863322 C85.1805164,33.0940242 86.7334263,15.4453075 87.0167274,12.4798838 C87.242319,10.149908 93.1549184,9.59291041 92.7168509,12.3439031 C91.6492254,19.0854044 89.1309932,29.7624988 89.8812165,33.9909734 C90.5606146,37.8193511 96.1767971,36.5170751 97.3860732,33.3581404 C99.5528022,27.7044843 99.1147347,16.5906828 99.830857,12.0013366 C100.428937,8.18080387 106.803212,7.97421792 106.252349,11.0442421 C105.704109,14.1142663 105.483764,15.4688426 105.481141,15.5943632 C107.396046,13.5337337 110.375954,10.5316998 113.809669,9.32094915 C119.627835,7.27077966 123.874728,11.2822082 124.538387,17.5190121 C124.976455,21.6402712 123.717339,24.8881162 122.741524,28.8367845 C121.435191,34.1086489 123.869482,39.2889879 127.101213,35.1886489 C131.972419,29.0067603 135.387771,16.423322 135.387771,15.6466634 C133.323345,11.4940242 131.972419,8.25402421 134.731982,6.60133656 C137.297431,5.06370944 141.405297,9.05944794 140.982968,12.9976562 Z M145.555134,28.6171235 C141.41579,31.0752349 138.664096,34.1766392 138.755907,36.1980436 C138.900181,39.3988184 144.251424,37.6206102 145.534149,34.3936852 C146.30798,32.4428862 146.203054,30.5286973 145.555134,28.6171235 Z M71.8181467,18.3741211 C71.8181467,17.3071961 67.1672866,10.0793027 62.5846285,16.624678 C59.2033772,21.4572203 56.9658229,35.3638547 63.2640266,36.7968814 C67.8230762,37.8324262 69.6015777,32.4193511 70.0606304,30.021385 C71.012837,25.0424019 71.8181467,21.1015787 71.8181467,18.3741211 Z M92.5628715,0.206324455 C94.1866067,0.852232446 94.9237142,2.82395157 94.207592,4.60738983 C93.4940928,6.3934431 91.5975492,7.31392736 89.973814,6.66540436 C88.3500789,6.01949637 87.6129713,4.04777724 88.3290936,2.26433898 C89.0425927,0.480900726 90.9391364,-0.439583535 92.5628715,0.206324455 Z" id="Combined-Shape"></path>
    </g>
</svg>
